<svg width="149" height="217" viewBox="0 0 149 217" fill="none" xmlns="http://www.w3.org/2000/svg">
<path d="M128.848 51.2266V169H113.027V83.7461L76.6406 122.594H72.4219L35.1562 83.7461V169H19.3359V51.2266H24.2578L74.5312 105.191L123.926 51.2266H128.848Z" fill="black"/>
<path d="M75.8125 49.4688C82.7266 49.4688 88.4102 50.4648 92.8633 52.457C97.4336 54.4492 101.418 56.5586 104.816 58.7852V75.1328C101.535 72.6719 97.5508 70.3867 92.8633 68.2773C88.1758 66.0508 83.0781 64.9375 77.5703 64.9375C74.0547 64.9375 70.3633 65.582 66.4961 66.8711C62.7461 68.043 59.582 69.9766 57.0039 72.6719C54.4258 75.3672 53.1367 78.8242 53.1367 83.043C53.1367 87.7305 54.8359 91.3047 58.2344 93.7656C61.6328 96.2266 65.7344 98.5703 70.5391 100.797L86.7109 108.18C94.7969 111.812 100.891 115.855 104.992 120.309C109.094 124.762 111.145 130.68 111.145 138.062C111.145 144.508 109.27 150.191 105.52 155.113C101.77 159.918 96.8477 163.727 90.7539 166.539C84.6602 169.352 77.9805 170.758 70.7148 170.758C63.918 170.758 57.6484 169.586 51.9062 167.242C46.1641 164.898 41.1836 162.262 36.9648 159.332V142.984C41.5352 146.148 46.75 149.02 52.6094 151.598C58.5859 154.059 65.3242 155.289 72.8242 155.289C78.6836 155.289 83.8398 153.824 88.293 150.895C92.7461 147.965 94.9727 143.922 94.9727 138.766C94.9727 135.836 94.0352 133.316 92.1602 131.207C90.4023 129.098 88.2344 127.281 85.6562 125.758C83.0781 124.234 80.5586 122.945 78.0977 121.891L58.5859 113.102C50.1484 109.352 44.4062 104.957 41.3594 99.918C38.3125 94.8789 36.7891 89.0781 36.7891 82.5156C36.7891 76.3047 38.5469 70.7383 42.0625 65.8164C45.6953 60.7773 50.5 56.793 56.4766 53.8633C62.4531 50.9336 68.8984 49.4688 75.8125 49.4688Z" fill="black"/>
</svg>
